solid OpenSCAD_Model
  facet normal 1 -0 0
    outer loop
      vertex 116.19 89.9774 2
      vertex 116.19 90 0
      vertex 116.19 90 2
    endloop
  endfacet
  facet normal 1 0 0
    outer loop
      vertex 116.19 90 0
      vertex 116.19 89.9774 2
      vertex 116.19 89.9774 0
    endloop
  endfacet
  facet normal 0 1 -0
    outer loop
      vertex 120 86.24 0
      vertex 119.994 86.24 2
      vertex 120 86.24 2
    endloop
  endfacet
  facet normal 0 1 0
    outer loop
      vertex 119.994 86.24 2
      vertex 120 86.24 0
      vertex 119.994 86.24 0
    endloop
  endfacet
  facet normal 0.992115 0.125332 0
    outer loop
      vertex 119.994 86.24 2
      vertex 119.88 87.1375 0
      vertex 119.88 87.1375 2
    endloop
  endfacet
  facet normal 0.992115 0.125332 0
    outer loop
      vertex 119.88 87.1375 0
      vertex 119.994 86.24 2
      vertex 119.994 86.24 0
    endloop
  endfacet
  facet normal -0.0627984 0.998026 0
    outer loop
      vertex 116.429 89.9925 0
      vertex 116.19 89.9774 2
      vertex 116.429 89.9925 2
    endloop
  endfacet
  facet normal -0.0627984 0.998026 0
    outer loop
      vertex 116.19 89.9774 2
      vertex 116.429 89.9925 0
      vertex 116.19 89.9774 0
    endloop
  endfacet
  facet normal 0.637424 0.770513 -0
    outer loop
      vertex 118.967 88.7981 0
      vertex 118.231 89.4069 2
      vertex 118.967 88.7981 2
    endloop
  endfacet
  facet normal 0.637424 0.770513 0
    outer loop
      vertex 118.231 89.4069 2
      vertex 118.967 88.7981 0
      vertex 118.231 89.4069 0
    endloop
  endfacet
  facet normal 0.809019 0.587783 0
    outer loop
      vertex 119.529 88.0255 2
      vertex 118.967 88.7981 0
      vertex 118.967 88.7981 2
    endloop
  endfacet
  facet normal 0.809019 0.587783 0
    outer loop
      vertex 118.967 88.7981 0
      vertex 119.529 88.0255 2
      vertex 119.529 88.0255 0
    endloop
  endfacet
  facet normal 0.929776 0.368127 0
    outer loop
      vertex 119.88 87.1375 2
      vertex 119.529 88.0255 0
      vertex 119.529 88.0255 2
    endloop
  endfacet
  facet normal 0.929776 0.368127 0
    outer loop
      vertex 119.529 88.0255 0
      vertex 119.88 87.1375 2
      vertex 119.88 87.1375 0
    endloop
  endfacet
  facet normal 0.187387 0.982286 -0
    outer loop
      vertex 117.367 89.8135 0
      vertex 116.429 89.9925 2
      vertex 117.367 89.8135 2
    endloop
  endfacet
  facet normal 0.187387 0.982286 0
    outer loop
      vertex 116.429 89.9925 2
      vertex 117.367 89.8135 0
      vertex 116.429 89.9925 0
    endloop
  endfacet
  facet normal 0.425776 0.904828 -0
    outer loop
      vertex 118.231 89.4069 0
      vertex 117.367 89.8135 2
      vertex 118.231 89.4069 2
    endloop
  endfacet
  facet normal 0.425776 0.904828 0
    outer loop
      vertex 117.367 89.8135 2
      vertex 118.231 89.4069 0
      vertex 117.367 89.8135 0
    endloop
  endfacet
  facet normal 0 1 -0
    outer loop
      vertex 0.0225697 86.19 0
      vertex 0 86.19 2
      vertex 0.0225697 86.19 2
    endloop
  endfacet
  facet normal 0 1 0
    outer loop
      vertex 0 86.19 2
      vertex 0.0225697 86.19 0
      vertex 0 86.19 0
    endloop
  endfacet
  facet normal -1 0 0
    outer loop
      vertex 3.76 89.9937 0
      vertex 3.76 90 2
      vertex 3.76 90 0
    endloop
  endfacet
  facet normal -1 -0 0
    outer loop
      vertex 3.76 90 2
      vertex 3.76 89.9937 0
      vertex 3.76 89.9937 2
    endloop
  endfacet
  facet normal -0.125332 0.992115 0
    outer loop
      vertex 3.76 89.9937 0
      vertex 2.86249 89.8803 2
      vertex 3.76 89.9937 2
    endloop
  endfacet
  facet normal -0.125332 0.992115 0
    outer loop
      vertex 2.86249 89.8803 2
      vertex 3.76 89.9937 0
      vertex 2.86249 89.8803 0
    endloop
  endfacet
  facet normal -0.998027 -0.0627922 0
    outer loop
      vertex 0.0225697 86.19 0
      vertex 0.00751835 86.4292 2
      vertex 0.00751835 86.4292 0
    endloop
  endfacet
  facet normal -0.998027 -0.0627922 0
    outer loop
      vertex 0.00751835 86.4292 2
      vertex 0.0225697 86.19 0
      vertex 0.0225697 86.19 2
    endloop
  endfacet
  facet normal -0.770513 0.637424 0
    outer loop
      vertex 0.593111 88.2315 0
      vertex 1.20188 88.9674 2
      vertex 1.20188 88.9674 0
    endloop
  endfacet
  facet normal -0.770513 0.637424 0
    outer loop
      vertex 1.20188 88.9674 2
      vertex 0.593111 88.2315 0
      vertex 0.593111 88.2315 2
    endloop
  endfacet
  facet normal -0.587784 0.809018 0
    outer loop
      vertex 1.97452 89.5287 0
      vertex 1.20188 88.9674 2
      vertex 1.97452 89.5287 2
    endloop
  endfacet
  facet normal -0.587784 0.809018 0
    outer loop
      vertex 1.20188 88.9674 2
      vertex 1.97452 89.5287 0
      vertex 1.20188 88.9674 0
    endloop
  endfacet
  facet normal -0.368129 0.929775 0
    outer loop
      vertex 2.86249 89.8803 0
      vertex 1.97452 89.5287 2
      vertex 2.86249 89.8803 2
    endloop
  endfacet
  facet normal -0.368129 0.929775 0
    outer loop
      vertex 1.97452 89.5287 2
      vertex 2.86249 89.8803 0
      vertex 1.97452 89.5287 0
    endloop
  endfacet
  facet normal -0.982287 0.187381 0
    outer loop
      vertex 0.00751835 86.4292 0
      vertex 0.186475 87.3674 2
      vertex 0.186475 87.3674 0
    endloop
  endfacet
  facet normal -0.982287 0.187381 0
    outer loop
      vertex 0.186475 87.3674 2
      vertex 0.00751835 86.4292 0
      vertex 0.00751835 86.4292 2
    endloop
  endfacet
  facet normal -0.904827 0.42578 0
    outer loop
      vertex 0.186475 87.3674 0
      vertex 0.593111 88.2315 2
      vertex 0.593111 88.2315 0
    endloop
  endfacet
  facet normal -0.904827 0.42578 0
    outer loop
      vertex 0.593111 88.2315 2
      vertex 0.186475 87.3674 0
      vertex 0.186475 87.3674 2
    endloop
  endfacet
  facet normal -1 0 0
    outer loop
      vertex 3.81 0 0
      vertex 3.81 0.0225697 2
      vertex 3.81 0.0225697 0
    endloop
  endfacet
  facet normal -1 -0 0
    outer loop
      vertex 3.81 0.0225697 2
      vertex 3.81 0 0
      vertex 3.81 0 2
    endloop
  endfacet
  facet normal 0 -1 0
    outer loop
      vertex 0 3.76 0
      vertex 0.00631693 3.76 2
      vertex 0 3.76 2
    endloop
  endfacet
  facet normal 0 -1 -0
    outer loop
      vertex 0.00631693 3.76 2
      vertex 0 3.76 0
      vertex 0.00631693 3.76 0
    endloop
  endfacet
  facet normal -0.992115 -0.125334 0
    outer loop
      vertex 0.119699 2.86249 0
      vertex 0.00631693 3.76 2
      vertex 0.00631693 3.76 0
    endloop
  endfacet
  facet normal -0.992115 -0.125334 0
    outer loop
      vertex 0.00631693 3.76 2
      vertex 0.119699 2.86249 0
      vertex 0.119699 2.86249 2
    endloop
  endfacet
  facet normal 0.0627912 -0.998027 0
    outer loop
      vertex 3.57077 0.00751835 0
      vertex 3.81 0.0225697 2
      vertex 3.57077 0.00751835 2
    endloop
  endfacet
  facet normal 0.0627912 -0.998027 0
    outer loop
      vertex 3.81 0.0225697 2
      vertex 3.57077 0.00751835 0
      vertex 3.81 0.0225697 0
    endloop
  endfacet
  facet normal -0.637424 -0.770513 0
    outer loop
      vertex 1.03263 1.20188 0
      vertex 1.7685 0.593111 2
      vertex 1.03263 1.20188 2
    endloop
  endfacet
  facet normal -0.637424 -0.770513 -0
    outer loop
      vertex 1.7685 0.593111 2
      vertex 1.03263 1.20188 0
      vertex 1.7685 0.593111 0
    endloop
  endfacet
  facet normal -0.809017 -0.587785 0
    outer loop
      vertex 1.03263 1.20188 0
      vertex 0.471272 1.97452 2
      vertex 0.471272 1.97452 0
    endloop
  endfacet
  facet normal -0.809017 -0.587785 0
    outer loop
      vertex 0.471272 1.97452 2
      vertex 1.03263 1.20188 0
      vertex 1.03263 1.20188 2
    endloop
  endfacet
  facet normal -0.929777 -0.368124 0
    outer loop
      vertex 0.471272 1.97452 0
      vertex 0.119699 2.86249 2
      vertex 0.119699 2.86249 0
    endloop
  endfacet
  facet normal -0.929777 -0.368124 0
    outer loop
      vertex 0.119699 2.86249 2
      vertex 0.471272 1.97452 0
      vertex 0.471272 1.97452 2
    endloop
  endfacet
  facet normal -0.187382 -0.982287 0
    outer loop
      vertex 2.63265 0.186475 0
      vertex 3.57077 0.00751835 2
      vertex 2.63265 0.186475 2
    endloop
  endfacet
  facet normal -0.187382 -0.982287 -0
    outer loop
      vertex 3.57077 0.00751835 2
      vertex 2.63265 0.186475 0
      vertex 3.57077 0.00751835 0
    endloop
  endfacet
  facet normal -0.425779 -0.904827 0
    outer loop
      vertex 1.7685 0.593111 0
      vertex 2.63265 0.186475 2
      vertex 1.7685 0.593111 2
    endloop
  endfacet
  facet normal -0.425779 -0.904827 -0
    outer loop
      vertex 2.63265 0.186475 2
      vertex 1.7685 0.593111 0
      vertex 2.63265 0.186475 0
    endloop
  endfacet
  facet normal 0 -1 0
    outer loop
      vertex 119.977 3.81 0
      vertex 120 3.81 2
      vertex 119.977 3.81 2
    endloop
  endfacet
  facet normal 0 -1 -0
    outer loop
      vertex 120 3.81 2
      vertex 119.977 3.81 0
      vertex 120 3.81 0
    endloop
  endfacet
  facet normal 1 -0 0
    outer loop
      vertex 116.24 0 2
      vertex 116.24 0.00631693 0
      vertex 116.24 0.00631693 2
    endloop
  endfacet
  facet normal 1 0 0
    outer loop
      vertex 116.24 0.00631693 0
      vertex 116.24 0 2
      vertex 116.24 0 0
    endloop
  endfacet
  facet normal 0.125334 -0.992115 0
    outer loop
      vertex 116.24 0.00631693 0
      vertex 117.138 0.119699 2
      vertex 116.24 0.00631693 2
    endloop
  endfacet
  facet normal 0.125334 -0.992115 0
    outer loop
      vertex 117.138 0.119699 2
      vertex 116.24 0.00631693 0
      vertex 117.138 0.119699 0
    endloop
  endfacet
  facet normal 0.998026 0.0627974 0
    outer loop
      vertex 119.992 3.57077 2
      vertex 119.977 3.81 0
      vertex 119.977 3.81 2
    endloop
  endfacet
  facet normal 0.998026 0.0627974 0
    outer loop
      vertex 119.977 3.81 0
      vertex 119.992 3.57077 2
      vertex 119.992 3.57077 0
    endloop
  endfacet
  facet normal 0.770514 -0.637423 0
    outer loop
      vertex 118.798 1.03263 2
      vertex 119.407 1.7685 0
      vertex 119.407 1.7685 2
    endloop
  endfacet
  facet normal 0.770514 -0.637423 0
    outer loop
      vertex 119.407 1.7685 0
      vertex 118.798 1.03263 2
      vertex 118.798 1.03263 0
    endloop
  endfacet
  facet normal 0.587784 -0.809018 0
    outer loop
      vertex 118.025 0.471272 0
      vertex 118.798 1.03263 2
      vertex 118.025 0.471272 2
    endloop
  endfacet
  facet normal 0.587784 -0.809018 0
    outer loop
      vertex 118.798 1.03263 2
      vertex 118.025 0.471272 0
      vertex 118.798 1.03263 0
    endloop
  endfacet
  facet normal 0.368123 -0.929777 0
    outer loop
      vertex 117.138 0.119699 0
      vertex 118.025 0.471272 2
      vertex 117.138 0.119699 2
    endloop
  endfacet
  facet normal 0.368123 -0.929777 0
    outer loop
      vertex 118.025 0.471272 2
      vertex 117.138 0.119699 0
      vertex 118.025 0.471272 0
    endloop
  endfacet
  facet normal 0.982286 -0.187388 0
    outer loop
      vertex 119.814 2.63265 2
      vertex 119.992 3.57077 0
      vertex 119.992 3.57077 2
    endloop
  endfacet
  facet normal 0.982286 -0.187388 0
    outer loop
      vertex 119.992 3.57077 0
      vertex 119.814 2.63265 2
      vertex 119.814 2.63265 0
    endloop
  endfacet
  facet normal 0.904829 -0.425775 0
    outer loop
      vertex 119.407 1.7685 2
      vertex 119.814 2.63265 0
      vertex 119.814 2.63265 2
    endloop
  endfacet
  facet normal 0.904829 -0.425775 0
    outer loop
      vertex 119.814 2.63265 0
      vertex 119.407 1.7685 2
      vertex 119.407 1.7685 0
    endloop
  endfacet
  facet normal -1 0 0
    outer loop
      vertex 0 3.76 0
      vertex 0 86.19 2
      vertex 0 86.19 0
    endloop
  endfacet
  facet normal -1 -0 0
    outer loop
      vertex 0 86.19 2
      vertex 0 3.76 0
      vertex 0 3.76 2
    endloop
  endfacet
  facet normal 0 0 1
    outer loop
      vertex 117.87 85.381 2
      vertex 120 86.24 2
      vertex 119.994 86.24 2
    endloop
  endfacet
  facet normal 0 0 1
    outer loop
      vertex 120 86.24 2
      vertex 110 45 2
      vertex 120 3.81 2
    endloop
  endfacet
  facet normal -0 0 1
    outer loop
      vertex 117.87 86.999 2
      vertex 119.994 86.24 2
      vertex 119.88 87.1375 2
    endloop
  endfacet
  facet normal 0 0 1
    outer loop
      vertex 117.87 3.00095 2
      vertex 119.992 3.57077 2
      vertex 119.977 3.81 2
    endloop
  endfacet
  facet normal -0 0 1
    outer loop
      vertex 110 15 2
      vertex 120 3.81 2
      vertex 110 45 2
    endloop
  endfacet
  facet normal 0 0 1
    outer loop
      vertex 117.87 86.999 2
      vertex 119.88 87.1375 2
      vertex 119.529 88.0255 2
    endloop
  endfacet
  facet normal -0 -0 1
    outer loop
      vertex 116.605 5.62791 2
      vertex 120 3.81 2
      vertex 110 15 2
    endloop
  endfacet
  facet normal 0 0 1
    outer loop
      vertex 117.87 86.999 2
      vertex 119.529 88.0255 2
      vertex 118.967 88.7981 2
    endloop
  endfacet
  facet normal 0 0 1
    outer loop
      vertex 120 86.24 2
      vertex 117.87 85.381 2
      vertex 116.605 84.3721 2
    endloop
  endfacet
  facet normal 0 0 1
    outer loop
      vertex 117.87 86.999 2
      vertex 118.967 88.7981 2
      vertex 118.231 89.4069 2
    endloop
  endfacet
  facet normal 0 0 1
    outer loop
      vertex 117.87 3.00095 2
      vertex 119.977 3.81 2
      vertex 117.87 4.61905 2
    endloop
  endfacet
  facet normal 0 0 1
    outer loop
      vertex 119.994 86.24 2
      vertex 117.87 86.999 2
      vertex 117.87 85.381 2
    endloop
  endfacet
  facet normal 0 0 1
    outer loop
      vertex 116.605 88.0079 2
      vertex 118.231 89.4069 2
      vertex 117.367 89.8135 2
    endloop
  endfacet
  facet normal 0 0 1
    outer loop
      vertex 118.231 89.4069 2
      vertex 116.605 88.0079 2
      vertex 117.87 86.999 2
    endloop
  endfacet
  facet normal 0 0 1
    outer loop
      vertex 116.429 89.9925 2
      vertex 116.605 88.0079 2
      vertex 117.367 89.8135 2
    endloop
  endfacet
  facet normal -0 0 1
    outer loop
      vertex 116.19 89.9774 2
      vertex 116.605 88.0079 2
      vertex 116.429 89.9925 2
    endloop
  endfacet
  facet normal 0 0 1
    outer loop
      vertex 116.605 88.0079 2
      vertex 116.19 89.9774 2
      vertex 115.027 87.6479 2
    endloop
  endfacet
  facet normal 0 0 1
    outer loop
      vertex 4.22493 1.99209 2
      vertex 3.57077 0.00751835 2
      vertex 3.81 0.0225697 2
    endloop
  endfacet
  facet normal 0 0 1
    outer loop
      vertex 2.63265 0.186475 2
      vertex 4.22493 1.99209 2
      vertex 2.6474 2.35215 2
    endloop
  endfacet
  facet normal 0 0 1
    outer loop
      vertex 4.22493 1.99209 2
      vertex 2.63265 0.186475 2
      vertex 3.57077 0.00751835 2
    endloop
  endfacet
  facet normal 0 0 1
    outer loop
      vertex 0.471272 1.97452 2
      vertex 2.6474 2.35215 2
      vertex 1.94534 3.81 2
    endloop
  endfacet
  facet normal 0 0 1
    outer loop
      vertex 2.6474 2.35215 2
      vertex 1.7685 0.593111 2
      vertex 2.63265 0.186475 2
    endloop
  endfacet
  facet normal 0 0 1
    outer loop
      vertex 10 61 2
      vertex 0 86.19 2
      vertex 10 55 2
    endloop
  endfacet
  facet normal 0 0 1
    outer loop
      vertex 10 45 2
      vertex 4.22493 5.62791 2
      vertex 5.49 4.61905 2
    endloop
  endfacet
  facet normal 0 0 1
    outer loop
      vertex 10 55 2
      vertex 0 86.19 2
      vertex 10 45 2
    endloop
  endfacet
  facet normal 0 0 1
    outer loop
      vertex 10 45 2
      vertex 2.6474 5.26785 2
      vertex 4.22493 5.62791 2
    endloop
  endfacet
  facet normal -0 0 1
    outer loop
      vertex 0.0225697 86.19 2
      vertex 2.6474 84.7321 2
      vertex 1.94534 86.19 2
    endloop
  endfacet
  facet normal -0 0 1
    outer loop
      vertex 0 86.19 2
      vertex 2.6474 84.7321 2
      vertex 0.0225697 86.19 2
    endloop
  endfacet
  facet normal -0 0 1
    outer loop
      vertex 10 55 2
      vertex 110 45 2
      vertex 110 55 2
    endloop
  endfacet
  facet normal 0 0 1
    outer loop
      vertex 110 45 2
      vertex 10 55 2
      vertex 10 45 2
    endloop
  endfacet
  facet normal 0 0 1
    outer loop
      vertex 116.19 90 2
      vertex 115.027 87.6479 2
      vertex 116.19 89.9774 2
    endloop
  endfacet
  facet normal -0 -0 1
    outer loop
      vertex 117.87 4.61905 2
      vertex 120 3.81 2
      vertex 116.605 5.62791 2
    endloop
  endfacet
  facet normal 0 0 1
    outer loop
      vertex 114.325 86.19 2
      vertex 10 61 2
      vertex 110 61 2
    endloop
  endfacet
  facet normal -0 0 1
    outer loop
      vertex 5.49 86.999 2
      vertex 114.325 86.19 2
      vertex 115.027 87.6479 2
    endloop
  endfacet
  facet normal 0 0 1
    outer loop
      vertex 5.49 86.999 2
      vertex 115.027 87.6479 2
      vertex 116.19 90 2
    endloop
  endfacet
  facet normal -0 0 1
    outer loop
      vertex 4.22493 84.3721 2
      vertex 10 61 2
      vertex 5.49 85.381 2
    endloop
  endfacet
  facet normal 0 0 1
    outer loop
      vertex 2.6474 84.7321 2
      vertex 10 61 2
      vertex 4.22493 84.3721 2
    endloop
  endfacet
  facet normal 0 0 1
    outer loop
      vertex 114.325 86.19 2
      vertex 5.49 85.381 2
      vertex 10 61 2
    endloop
  endfacet
  facet normal 0 0 1
    outer loop
      vertex 114.325 86.19 2
      vertex 5.49 86.999 2
      vertex 5.49 85.381 2
    endloop
  endfacet
  facet normal -0 0 1
    outer loop
      vertex 3.76 90 2
      vertex 5.49 86.999 2
      vertex 116.19 90 2
    endloop
  endfacet
  facet normal -0 0 1
    outer loop
      vertex 3.76 89.9937 2
      vertex 5.49 86.999 2
      vertex 3.76 90 2
    endloop
  endfacet
  facet normal 0 0 1
    outer loop
      vertex 5.49 86.999 2
      vertex 3.76 89.9937 2
      vertex 4.22493 88.0079 2
    endloop
  endfacet
  facet normal -0 0 1
    outer loop
      vertex 2.86249 89.8803 2
      vertex 4.22493 88.0079 2
      vertex 3.76 89.9937 2
    endloop
  endfacet
  facet normal 0 0 1
    outer loop
      vertex 2.86249 89.8803 2
      vertex 2.6474 87.6479 2
      vertex 4.22493 88.0079 2
    endloop
  endfacet
  facet normal -0 0 1
    outer loop
      vertex 1.97452 89.5287 2
      vertex 2.6474 87.6479 2
      vertex 2.86249 89.8803 2
    endloop
  endfacet
  facet normal -0 0 1
    outer loop
      vertex 1.20188 88.9674 2
      vertex 2.6474 87.6479 2
      vertex 1.97452 89.5287 2
    endloop
  endfacet
  facet normal 0 0 1
    outer loop
      vertex 0 3.76 2
      vertex 10 45 2
      vertex 0 86.19 2
    endloop
  endfacet
  facet normal -0 0 1
    outer loop
      vertex 0.593111 88.2315 2
      vertex 2.6474 87.6479 2
      vertex 1.20188 88.9674 2
    endloop
  endfacet
  facet normal 0 0 1
    outer loop
      vertex 2.6474 87.6479 2
      vertex 0.593111 88.2315 2
      vertex 1.94534 86.19 2
    endloop
  endfacet
  facet normal 0 0 1
    outer loop
      vertex 2.6474 5.26785 2
      vertex 0.00631693 3.76 2
      vertex 1.94534 3.81 2
    endloop
  endfacet
  facet normal -0 0 1
    outer loop
      vertex 0.186475 87.3674 2
      vertex 1.94534 86.19 2
      vertex 0.593111 88.2315 2
    endloop
  endfacet
  facet normal 0 -0 1
    outer loop
      vertex 0.119699 2.86249 2
      vertex 1.94534 3.81 2
      vertex 0.00631693 3.76 2
    endloop
  endfacet
  facet normal -0 0 1
    outer loop
      vertex 0.00751835 86.4292 2
      vertex 1.94534 86.19 2
      vertex 0.186475 87.3674 2
    endloop
  endfacet
  facet normal 0 0 1
    outer loop
      vertex 2.6474 2.35215 2
      vertex 1.03263 1.20188 2
      vertex 1.7685 0.593111 2
    endloop
  endfacet
  facet normal 0 0 1
    outer loop
      vertex 2.6474 2.35215 2
      vertex 0.471272 1.97452 2
      vertex 1.03263 1.20188 2
    endloop
  endfacet
  facet normal 0 0 1
    outer loop
      vertex 1.94534 86.19 2
      vertex 0.00751835 86.4292 2
      vertex 0.0225697 86.19 2
    endloop
  endfacet
  facet normal 0 0 1
    outer loop
      vertex 120 86.24 2
      vertex 116.605 84.3721 2
      vertex 110 61 2
    endloop
  endfacet
  facet normal 0 0 1
    outer loop
      vertex 120 86.24 2
      vertex 110 61 2
      vertex 110 55 2
    endloop
  endfacet
  facet normal 0 0 1
    outer loop
      vertex 110 61 2
      vertex 116.605 84.3721 2
      vertex 115.027 84.7321 2
    endloop
  endfacet
  facet normal 0 0 1
    outer loop
      vertex 120 86.24 2
      vertex 110 55 2
      vertex 110 45 2
    endloop
  endfacet
  facet normal 0 0 1
    outer loop
      vertex 110 61 2
      vertex 115.027 84.7321 2
      vertex 114.325 86.19 2
    endloop
  endfacet
  facet normal 0 0 1
    outer loop
      vertex 119.992 3.57077 2
      vertex 117.87 3.00095 2
      vertex 119.814 2.63265 2
    endloop
  endfacet
  facet normal 0 0 1
    outer loop
      vertex 119.814 2.63265 2
      vertex 117.87 3.00095 2
      vertex 119.407 1.7685 2
    endloop
  endfacet
  facet normal 0 0 1
    outer loop
      vertex 119.407 1.7685 2
      vertex 117.87 3.00095 2
      vertex 118.798 1.03263 2
    endloop
  endfacet
  facet normal -0 0 1
    outer loop
      vertex 116.605 1.99209 2
      vertex 118.798 1.03263 2
      vertex 117.87 3.00095 2
    endloop
  endfacet
  facet normal 0 0 1
    outer loop
      vertex 118.798 1.03263 2
      vertex 116.605 1.99209 2
      vertex 118.025 0.471272 2
    endloop
  endfacet
  facet normal 0 0 1
    outer loop
      vertex 118.025 0.471272 2
      vertex 116.605 1.99209 2
      vertex 117.138 0.119699 2
    endloop
  endfacet
  facet normal 0 0 1
    outer loop
      vertex 116.605 1.99209 2
      vertex 116.24 0.00631693 2
      vertex 117.138 0.119699 2
    endloop
  endfacet
  facet normal 0 0 1
    outer loop
      vertex 115.027 2.35215 2
      vertex 116.24 0.00631693 2
      vertex 116.605 1.99209 2
    endloop
  endfacet
  facet normal 0 0 1
    outer loop
      vertex 115.027 2.35215 2
      vertex 116.24 0 2
      vertex 116.24 0.00631693 2
    endloop
  endfacet
  facet normal 0 0 1
    outer loop
      vertex 120 3.81 2
      vertex 117.87 4.61905 2
      vertex 119.977 3.81 2
    endloop
  endfacet
  facet normal 0 0 1
    outer loop
      vertex 116.605 5.62791 2
      vertex 110 15 2
      vertex 115.027 5.26785 2
    endloop
  endfacet
  facet normal 0 0 1
    outer loop
      vertex 115.027 5.26785 2
      vertex 110 15 2
      vertex 114.325 3.81 2
    endloop
  endfacet
  facet normal -0 0 1
    outer loop
      vertex 10 15 2
      vertex 114.325 3.81 2
      vertex 110 15 2
    endloop
  endfacet
  facet normal 0 0 1
    outer loop
      vertex 5.49 3.00095 2
      vertex 114.325 3.81 2
      vertex 10 15 2
    endloop
  endfacet
  facet normal 0 0 1
    outer loop
      vertex 114.325 3.81 2
      vertex 5.49 3.00095 2
      vertex 115.027 2.35215 2
    endloop
  endfacet
  facet normal 0 0 1
    outer loop
      vertex 0 86.19 2
      vertex 10 61 2
      vertex 2.6474 84.7321 2
    endloop
  endfacet
  facet normal 0 0 1
    outer loop
      vertex 10 45 2
      vertex 5.49 4.61905 2
      vertex 10 15 2
    endloop
  endfacet
  facet normal 0 0 1
    outer loop
      vertex 5.49 3.00095 2
      vertex 10 15 2
      vertex 5.49 4.61905 2
    endloop
  endfacet
  facet normal 0 0 1
    outer loop
      vertex 115.027 2.35215 2
      vertex 5.49 3.00095 2
      vertex 116.24 0 2
    endloop
  endfacet
  facet normal 0 0 1
    outer loop
      vertex 3.81 0.0225697 2
      vertex 5.49 3.00095 2
      vertex 4.22493 1.99209 2
    endloop
  endfacet
  facet normal 0 0 1
    outer loop
      vertex 5.49 3.00095 2
      vertex 3.81 0.0225697 2
      vertex 3.81 0 2
    endloop
  endfacet
  facet normal 0 0 1
    outer loop
      vertex 5.49 3.00095 2
      vertex 3.81 0 2
      vertex 116.24 0 2
    endloop
  endfacet
  facet normal 0 0 1
    outer loop
      vertex 1.94534 3.81 2
      vertex 0.119699 2.86249 2
      vertex 0.471272 1.97452 2
    endloop
  endfacet
  facet normal 0 0 1
    outer loop
      vertex 10 45 2
      vertex 0 3.76 2
      vertex 2.6474 5.26785 2
    endloop
  endfacet
  facet normal 0 0 1
    outer loop
      vertex 2.6474 5.26785 2
      vertex 0 3.76 2
      vertex 0.00631693 3.76 2
    endloop
  endfacet
  facet normal 1 -0 0
    outer loop
      vertex 120 3.81 2
      vertex 120 86.24 0
      vertex 120 86.24 2
    endloop
  endfacet
  facet normal 1 0 0
    outer loop
      vertex 120 86.24 0
      vertex 120 3.81 2
      vertex 120 3.81 0
    endloop
  endfacet
  facet normal -0 0 -1
    outer loop
      vertex 1.94534 3.81 0
      vertex 0.00631693 3.76 0
      vertex 0.0225697 86.19 0
    endloop
  endfacet
  facet normal 0 0 -1
    outer loop
      vertex 0 3.76 0
      vertex 0.0225697 86.19 0
      vertex 0.00631693 3.76 0
    endloop
  endfacet
  facet normal -0 0 -1
    outer loop
      vertex 0.0225697 86.19 0
      vertex 0 3.76 0
      vertex 0 86.19 0
    endloop
  endfacet
  facet normal 0 0 -1
    outer loop
      vertex 4.22493 88.0079 0
      vertex 2.86249 89.8803 0
      vertex 3.76 89.9937 0
    endloop
  endfacet
  facet normal 0 0 -1
    outer loop
      vertex 2.6474 87.6479 0
      vertex 2.86249 89.8803 0
      vertex 4.22493 88.0079 0
    endloop
  endfacet
  facet normal 0 0 -1
    outer loop
      vertex 2.6474 87.6479 0
      vertex 1.97452 89.5287 0
      vertex 2.86249 89.8803 0
    endloop
  endfacet
  facet normal 0 0 -1
    outer loop
      vertex 1.20188 88.9674 0
      vertex 2.6474 87.6479 0
      vertex 1.94534 86.19 0
    endloop
  endfacet
  facet normal 0 0 -1
    outer loop
      vertex 2.6474 87.6479 0
      vertex 1.20188 88.9674 0
      vertex 1.97452 89.5287 0
    endloop
  endfacet
  facet normal 0 0 -1
    outer loop
      vertex 1.94534 3.81 0
      vertex 1.20188 88.9674 0
      vertex 1.94534 86.19 0
    endloop
  endfacet
  facet normal -0 0 -1
    outer loop
      vertex 2.6474 2.35215 0
      vertex 0.471272 1.97452 0
      vertex 1.94534 3.81 0
    endloop
  endfacet
  facet normal 0 0 -1
    outer loop
      vertex 1.94534 3.81 0
      vertex 0.0225697 86.19 0
      vertex 1.20188 88.9674 0
    endloop
  endfacet
  facet normal 0 0 -1
    outer loop
      vertex 1.94534 3.81 0
      vertex 0.471272 1.97452 0
      vertex 0.119699 2.86249 0
    endloop
  endfacet
  facet normal 0 0 -1
    outer loop
      vertex 1.20188 88.9674 0
      vertex 0.0225697 86.19 0
      vertex 0.593111 88.2315 0
    endloop
  endfacet
  facet normal 0 0 -1
    outer loop
      vertex 0.00631693 3.76 0
      vertex 1.94534 3.81 0
      vertex 0.119699 2.86249 0
    endloop
  endfacet
  facet normal 0 0 -1
    outer loop
      vertex 0.593111 88.2315 0
      vertex 0.0225697 86.19 0
      vertex 0.186475 87.3674 0
    endloop
  endfacet
  facet normal 0 0 -1
    outer loop
      vertex 0.186475 87.3674 0
      vertex 0.0225697 86.19 0
      vertex 0.00751835 86.4292 0
    endloop
  endfacet
  facet normal -0 0 -1
    outer loop
      vertex 10 15 0
      vertex 2.6474 5.26785 0
      vertex 10 45 0
    endloop
  endfacet
  facet normal 0 0 -1
    outer loop
      vertex 10 45 0
      vertex 4.22493 84.3721 0
      vertex 5.49 85.381 0
    endloop
  endfacet
  facet normal 0 0 -1
    outer loop
      vertex 1.94534 3.81 0
      vertex 10 45 0
      vertex 2.6474 5.26785 0
    endloop
  endfacet
  facet normal 0 0 -1
    outer loop
      vertex 10 45 0
      vertex 2.6474 84.7321 0
      vertex 4.22493 84.3721 0
    endloop
  endfacet
  facet normal 0 0 -1
    outer loop
      vertex 1.94534 86.19 0
      vertex 10 45 0
      vertex 1.94534 3.81 0
    endloop
  endfacet
  facet normal 0 0 -1
    outer loop
      vertex 10 45 0
      vertex 1.94534 86.19 0
      vertex 2.6474 84.7321 0
    endloop
  endfacet
  facet normal 0 0 -1
    outer loop
      vertex 116.24 0 0
      vertex 115.027 2.35215 0
      vertex 116.24 0.00631693 0
    endloop
  endfacet
  facet normal -0 0 -1
    outer loop
      vertex 116.605 84.3721 0
      vertex 110 45 0
      vertex 115.027 84.7321 0
    endloop
  endfacet
  facet normal 0 0 -1
    outer loop
      vertex 114.325 3.81 0
      vertex 10 15 0
      vertex 110 15 0
    endloop
  endfacet
  facet normal 0 0 -1
    outer loop
      vertex 5.49 3.00095 0
      vertex 114.325 3.81 0
      vertex 115.027 2.35215 0
    endloop
  endfacet
  facet normal 0 0 -1
    outer loop
      vertex 5.49 3.00095 0
      vertex 115.027 2.35215 0
      vertex 116.24 0 0
    endloop
  endfacet
  facet normal 0 0 -1
    outer loop
      vertex 5.49 4.61905 0
      vertex 10 15 0
      vertex 5.49 3.00095 0
    endloop
  endfacet
  facet normal -0 0 -1
    outer loop
      vertex 114.325 3.81 0
      vertex 5.49 3.00095 0
      vertex 10 15 0
    endloop
  endfacet
  facet normal 0 0 -1
    outer loop
      vertex 3.81 0 0
      vertex 5.49 3.00095 0
      vertex 116.24 0 0
    endloop
  endfacet
  facet normal 0 0 -1
    outer loop
      vertex 3.81 0.0225697 0
      vertex 5.49 3.00095 0
      vertex 3.81 0 0
    endloop
  endfacet
  facet normal 0 0 -1
    outer loop
      vertex 5.49 3.00095 0
      vertex 3.81 0.0225697 0
      vertex 4.22493 1.99209 0
    endloop
  endfacet
  facet normal 0 0 -1
    outer loop
      vertex 3.57077 0.00751835 0
      vertex 4.22493 1.99209 0
      vertex 3.81 0.0225697 0
    endloop
  endfacet
  facet normal 0 0 -1
    outer loop
      vertex 2.63265 0.186475 0
      vertex 4.22493 1.99209 0
      vertex 3.57077 0.00751835 0
    endloop
  endfacet
  facet normal -0 0 -1
    outer loop
      vertex 4.22493 1.99209 0
      vertex 2.63265 0.186475 0
      vertex 2.6474 2.35215 0
    endloop
  endfacet
  facet normal 0 0 -1
    outer loop
      vertex 1.7685 0.593111 0
      vertex 2.6474 2.35215 0
      vertex 2.63265 0.186475 0
    endloop
  endfacet
  facet normal 0 0 -1
    outer loop
      vertex 0.471272 1.97452 0
      vertex 2.6474 2.35215 0
      vertex 1.03263 1.20188 0
    endloop
  endfacet
  facet normal 0 0 -1
    outer loop
      vertex 1.03263 1.20188 0
      vertex 2.6474 2.35215 0
      vertex 1.7685 0.593111 0
    endloop
  endfacet
  facet normal 0 0 -1
    outer loop
      vertex 110 45 0
      vertex 120 3.81 0
      vertex 110 15 0
    endloop
  endfacet
  facet normal 0 0 -1
    outer loop
      vertex 120 86.24 0
      vertex 116.605 84.3721 0
      vertex 117.87 85.381 0
    endloop
  endfacet
  facet normal 0 0 -1
    outer loop
      vertex 110 15 0
      vertex 116.605 5.62791 0
      vertex 115.027 5.26785 0
    endloop
  endfacet
  facet normal 0 0 -1
    outer loop
      vertex 120 3.81 0
      vertex 110 45 0
      vertex 120 86.24 0
    endloop
  endfacet
  facet normal 0 0 -1
    outer loop
      vertex 110 15 0
      vertex 115.027 5.26785 0
      vertex 114.325 3.81 0
    endloop
  endfacet
  facet normal 0 0 -1
    outer loop
      vertex 120 86.24 0
      vertex 110 45 0
      vertex 116.605 84.3721 0
    endloop
  endfacet
  facet normal 0 0 -1
    outer loop
      vertex 116.605 1.99209 0
      vertex 118.025 0.471272 0
      vertex 117.138 0.119699 0
    endloop
  endfacet
  facet normal 0 0 -1
    outer loop
      vertex 118.025 0.471272 0
      vertex 116.605 1.99209 0
      vertex 117.87 3.00095 0
    endloop
  endfacet
  facet normal 0 0 -1
    outer loop
      vertex 116.24 0.00631693 0
      vertex 116.605 1.99209 0
      vertex 117.138 0.119699 0
    endloop
  endfacet
  facet normal -0 0 -1
    outer loop
      vertex 116.605 1.99209 0
      vertex 116.24 0.00631693 0
      vertex 115.027 2.35215 0
    endloop
  endfacet
  facet normal 0 0 -1
    outer loop
      vertex 117.87 3.00095 0
      vertex 119.992 3.57077 0
      vertex 119.814 2.63265 0
    endloop
  endfacet
  facet normal 0 0 -1
    outer loop
      vertex 110 15 0
      vertex 120 3.81 0
      vertex 116.605 5.62791 0
    endloop
  endfacet
  facet normal -0 0 -1
    outer loop
      vertex 120 86.24 0
      vertex 117.87 85.381 0
      vertex 119.994 86.24 0
    endloop
  endfacet
  facet normal 0 0 -1
    outer loop
      vertex 117.87 3.00095 0
      vertex 119.814 2.63265 0
      vertex 119.407 1.7685 0
    endloop
  endfacet
  facet normal 0 0 -1
    outer loop
      vertex 117.87 86.999 0
      vertex 119.994 86.24 0
      vertex 117.87 85.381 0
    endloop
  endfacet
  facet normal 0 0 -1
    outer loop
      vertex 117.87 3.00095 0
      vertex 119.407 1.7685 0
      vertex 118.798 1.03263 0
    endloop
  endfacet
  facet normal 0 0 -1
    outer loop
      vertex 119.994 86.24 0
      vertex 117.87 86.999 0
      vertex 119.88 87.1375 0
    endloop
  endfacet
  facet normal 0 0 -1
    outer loop
      vertex 117.87 3.00095 0
      vertex 118.798 1.03263 0
      vertex 118.025 0.471272 0
    endloop
  endfacet
  facet normal -0 0 -1
    outer loop
      vertex 119.992 3.57077 0
      vertex 117.87 3.00095 0
      vertex 117.87 4.61905 0
    endloop
  endfacet
  facet normal -0 0 -1
    outer loop
      vertex 119.88 87.1375 0
      vertex 117.87 86.999 0
      vertex 119.529 88.0255 0
    endloop
  endfacet
  facet normal -0 0 -1
    outer loop
      vertex 119.529 88.0255 0
      vertex 117.87 86.999 0
      vertex 118.967 88.7981 0
    endloop
  endfacet
  facet normal -0 0 -1
    outer loop
      vertex 118.967 88.7981 0
      vertex 117.87 86.999 0
      vertex 118.231 89.4069 0
    endloop
  endfacet
  facet normal 0 0 -1
    outer loop
      vertex 116.605 88.0079 0
      vertex 118.231 89.4069 0
      vertex 117.87 86.999 0
    endloop
  endfacet
  facet normal -0 0 -1
    outer loop
      vertex 118.231 89.4069 0
      vertex 116.605 88.0079 0
      vertex 117.367 89.8135 0
    endloop
  endfacet
  facet normal 0 0 -1
    outer loop
      vertex 116.605 88.0079 0
      vertex 116.429 89.9925 0
      vertex 117.367 89.8135 0
    endloop
  endfacet
  facet normal 0 0 -1
    outer loop
      vertex 116.605 88.0079 0
      vertex 116.19 89.9774 0
      vertex 116.429 89.9925 0
    endloop
  endfacet
  facet normal 0 0 -1
    outer loop
      vertex 115.027 87.6479 0
      vertex 116.19 89.9774 0
      vertex 116.605 88.0079 0
    endloop
  endfacet
  facet normal 0 0 -1
    outer loop
      vertex 115.027 87.6479 0
      vertex 116.19 90 0
      vertex 116.19 89.9774 0
    endloop
  endfacet
  facet normal -0 0 -1
    outer loop
      vertex 115.027 84.7321 0
      vertex 110 45 0
      vertex 114.325 86.19 0
    endloop
  endfacet
  facet normal 0 0 -1
    outer loop
      vertex 10 45 0
      vertex 114.325 86.19 0
      vertex 110 45 0
    endloop
  endfacet
  facet normal 0 0 -1
    outer loop
      vertex 5.49 85.381 0
      vertex 114.325 86.19 0
      vertex 10 45 0
    endloop
  endfacet
  facet normal 0 0 -1
    outer loop
      vertex 5.49 86.999 0
      vertex 114.325 86.19 0
      vertex 5.49 85.381 0
    endloop
  endfacet
  facet normal 0 0 -1
    outer loop
      vertex 4.22493 5.62791 0
      vertex 10 15 0
      vertex 5.49 4.61905 0
    endloop
  endfacet
  facet normal 0 0 -1
    outer loop
      vertex 2.6474 5.26785 0
      vertex 10 15 0
      vertex 4.22493 5.62791 0
    endloop
  endfacet
  facet normal 0 0 -1
    outer loop
      vertex 114.325 86.19 0
      vertex 5.49 86.999 0
      vertex 115.027 87.6479 0
    endloop
  endfacet
  facet normal -0 0 -1
    outer loop
      vertex 115.027 87.6479 0
      vertex 5.49 86.999 0
      vertex 116.19 90 0
    endloop
  endfacet
  facet normal 0 0 -1
    outer loop
      vertex 3.76 89.9937 0
      vertex 5.49 86.999 0
      vertex 4.22493 88.0079 0
    endloop
  endfacet
  facet normal 0 0 -1
    outer loop
      vertex 5.49 86.999 0
      vertex 3.76 89.9937 0
      vertex 3.76 90 0
    endloop
  endfacet
  facet normal 0 0 -1
    outer loop
      vertex 5.49 86.999 0
      vertex 3.76 90 0
      vertex 116.19 90 0
    endloop
  endfacet
  facet normal 0 0 -1
    outer loop
      vertex 116.605 5.62791 0
      vertex 120 3.81 0
      vertex 117.87 4.61905 0
    endloop
  endfacet
  facet normal 0 0 -1
    outer loop
      vertex 117.87 4.61905 0
      vertex 120 3.81 0
      vertex 119.977 3.81 0
    endloop
  endfacet
  facet normal 0 0 -1
    outer loop
      vertex 119.992 3.57077 0
      vertex 117.87 4.61905 0
      vertex 119.977 3.81 0
    endloop
  endfacet
  facet normal 0 -1 0
    outer loop
      vertex 3.81 0 0
      vertex 116.24 0 2
      vertex 3.81 0 2
    endloop
  endfacet
  facet normal 0 -1 -0
    outer loop
      vertex 116.24 0 2
      vertex 3.81 0 0
      vertex 116.24 0 0
    endloop
  endfacet
  facet normal 0 1 -0
    outer loop
      vertex 116.19 90 0
      vertex 3.76 90 2
      vertex 116.19 90 2
    endloop
  endfacet
  facet normal 0 1 0
    outer loop
      vertex 3.76 90 2
      vertex 116.19 90 0
      vertex 3.76 90 0
    endloop
  endfacet
  facet normal 0.900969 0.433884 0
    outer loop
      vertex 2.6474 2.35215 2
      vertex 1.94534 3.81 0
      vertex 1.94534 3.81 2
    endloop
  endfacet
  facet normal 0.900969 0.433884 0
    outer loop
      vertex 1.94534 3.81 0
      vertex 2.6474 2.35215 2
      vertex 2.6474 2.35215 0
    endloop
  endfacet
  facet normal 0.222521 0.974928 -0
    outer loop
      vertex 4.22493 1.99209 0
      vertex 2.6474 2.35215 2
      vertex 4.22493 1.99209 2
    endloop
  endfacet
  facet normal 0.222521 0.974928 0
    outer loop
      vertex 2.6474 2.35215 2
      vertex 4.22493 1.99209 0
      vertex 2.6474 2.35215 0
    endloop
  endfacet
  facet normal -1 0 0
    outer loop
      vertex 5.49 3.00095 0
      vertex 5.49 4.61905 2
      vertex 5.49 4.61905 0
    endloop
  endfacet
  facet normal -1 -0 0
    outer loop
      vertex 5.49 4.61905 2
      vertex 5.49 3.00095 0
      vertex 5.49 3.00095 2
    endloop
  endfacet
  facet normal 0.900969 -0.433884 0
    outer loop
      vertex 1.94534 3.81 2
      vertex 2.6474 5.26785 0
      vertex 2.6474 5.26785 2
    endloop
  endfacet
  facet normal 0.900969 -0.433884 0
    outer loop
      vertex 2.6474 5.26785 0
      vertex 1.94534 3.81 2
      vertex 1.94534 3.81 0
    endloop
  endfacet
  facet normal 0.222521 -0.974928 0
    outer loop
      vertex 2.6474 5.26785 0
      vertex 4.22493 5.62791 2
      vertex 2.6474 5.26785 2
    endloop
  endfacet
  facet normal 0.222521 -0.974928 0
    outer loop
      vertex 4.22493 5.62791 2
      vertex 2.6474 5.26785 0
      vertex 4.22493 5.62791 0
    endloop
  endfacet
  facet normal -0.623489 -0.781832 0
    outer loop
      vertex 4.22493 5.62791 0
      vertex 5.49 4.61905 2
      vertex 4.22493 5.62791 2
    endloop
  endfacet
  facet normal -0.623489 -0.781832 -0
    outer loop
      vertex 5.49 4.61905 2
      vertex 4.22493 5.62791 0
      vertex 5.49 4.61905 0
    endloop
  endfacet
  facet normal -0.62349 0.781831 0
    outer loop
      vertex 5.49 3.00095 0
      vertex 4.22493 1.99209 2
      vertex 5.49 3.00095 2
    endloop
  endfacet
  facet normal -0.62349 0.781831 0
    outer loop
      vertex 4.22493 1.99209 2
      vertex 5.49 3.00095 0
      vertex 4.22493 1.99209 0
    endloop
  endfacet
  facet normal 0.900969 0.433884 0
    outer loop
      vertex 115.027 2.35215 2
      vertex 114.325 3.81 0
      vertex 114.325 3.81 2
    endloop
  endfacet
  facet normal 0.900969 0.433884 0
    outer loop
      vertex 114.325 3.81 0
      vertex 115.027 2.35215 2
      vertex 115.027 2.35215 0
    endloop
  endfacet
  facet normal 0.222521 0.974928 -0
    outer loop
      vertex 116.605 1.99209 0
      vertex 115.027 2.35215 2
      vertex 116.605 1.99209 2
    endloop
  endfacet
  facet normal 0.222521 0.974928 0
    outer loop
      vertex 115.027 2.35215 2
      vertex 116.605 1.99209 0
      vertex 115.027 2.35215 0
    endloop
  endfacet
  facet normal -1 0 0
    outer loop
      vertex 117.87 3.00095 0
      vertex 117.87 4.61905 2
      vertex 117.87 4.61905 0
    endloop
  endfacet
  facet normal -1 -0 0
    outer loop
      vertex 117.87 4.61905 2
      vertex 117.87 3.00095 0
      vertex 117.87 3.00095 2
    endloop
  endfacet
  facet normal 0.900969 -0.433884 0
    outer loop
      vertex 114.325 3.81 2
      vertex 115.027 5.26785 0
      vertex 115.027 5.26785 2
    endloop
  endfacet
  facet normal 0.900969 -0.433884 0
    outer loop
      vertex 115.027 5.26785 0
      vertex 114.325 3.81 2
      vertex 114.325 3.81 0
    endloop
  endfacet
  facet normal 0.222521 -0.974928 0
    outer loop
      vertex 115.027 5.26785 0
      vertex 116.605 5.62791 2
      vertex 115.027 5.26785 2
    endloop
  endfacet
  facet normal 0.222521 -0.974928 0
    outer loop
      vertex 116.605 5.62791 2
      vertex 115.027 5.26785 0
      vertex 116.605 5.62791 0
    endloop
  endfacet
  facet normal -0.623489 -0.781832 0
    outer loop
      vertex 116.605 5.62791 0
      vertex 117.87 4.61905 2
      vertex 116.605 5.62791 2
    endloop
  endfacet
  facet normal -0.623489 -0.781832 -0
    outer loop
      vertex 117.87 4.61905 2
      vertex 116.605 5.62791 0
      vertex 117.87 4.61905 0
    endloop
  endfacet
  facet normal -0.62349 0.781832 0
    outer loop
      vertex 117.87 3.00095 0
      vertex 116.605 1.99209 2
      vertex 117.87 3.00095 2
    endloop
  endfacet
  facet normal -0.62349 0.781832 0
    outer loop
      vertex 116.605 1.99209 2
      vertex 117.87 3.00095 0
      vertex 116.605 1.99209 0
    endloop
  endfacet
  facet normal 0.900969 0.433883 0
    outer loop
      vertex 115.027 84.7321 2
      vertex 114.325 86.19 0
      vertex 114.325 86.19 2
    endloop
  endfacet
  facet normal 0.900969 0.433883 0
    outer loop
      vertex 114.325 86.19 0
      vertex 115.027 84.7321 2
      vertex 115.027 84.7321 0
    endloop
  endfacet
  facet normal 0.222518 0.974929 -0
    outer loop
      vertex 116.605 84.3721 0
      vertex 115.027 84.7321 2
      vertex 116.605 84.3721 2
    endloop
  endfacet
  facet normal 0.222518 0.974929 0
    outer loop
      vertex 115.027 84.7321 2
      vertex 116.605 84.3721 0
      vertex 115.027 84.7321 0
    endloop
  endfacet
  facet normal -1 0 0
    outer loop
      vertex 117.87 85.381 0
      vertex 117.87 86.999 2
      vertex 117.87 86.999 0
    endloop
  endfacet
  facet normal -1 -0 0
    outer loop
      vertex 117.87 86.999 2
      vertex 117.87 85.381 0
      vertex 117.87 85.381 2
    endloop
  endfacet
  facet normal 0.900968 -0.433885 0
    outer loop
      vertex 114.325 86.19 2
      vertex 115.027 87.6479 0
      vertex 115.027 87.6479 2
    endloop
  endfacet
  facet normal 0.900968 -0.433885 0
    outer loop
      vertex 115.027 87.6479 0
      vertex 114.325 86.19 2
      vertex 114.325 86.19 0
    endloop
  endfacet
  facet normal -0.623487 0.781833 0
    outer loop
      vertex 117.87 85.381 0
      vertex 116.605 84.3721 2
      vertex 117.87 85.381 2
    endloop
  endfacet
  facet normal -0.623487 0.781833 0
    outer loop
      vertex 116.605 84.3721 2
      vertex 117.87 85.381 0
      vertex 116.605 84.3721 0
    endloop
  endfacet
  facet normal 0.222518 -0.974929 0
    outer loop
      vertex 115.027 87.6479 0
      vertex 116.605 88.0079 2
      vertex 115.027 87.6479 2
    endloop
  endfacet
  facet normal 0.222518 -0.974929 0
    outer loop
      vertex 116.605 88.0079 2
      vertex 115.027 87.6479 0
      vertex 116.605 88.0079 0
    endloop
  endfacet
  facet normal -0.623487 -0.781833 0
    outer loop
      vertex 116.605 88.0079 0
      vertex 117.87 86.999 2
      vertex 116.605 88.0079 2
    endloop
  endfacet
  facet normal -0.623487 -0.781833 -0
    outer loop
      vertex 117.87 86.999 2
      vertex 116.605 88.0079 0
      vertex 117.87 86.999 0
    endloop
  endfacet
  facet normal 0.900969 0.433882 0
    outer loop
      vertex 2.6474 84.7321 2
      vertex 1.94534 86.19 0
      vertex 1.94534 86.19 2
    endloop
  endfacet
  facet normal 0.900969 0.433882 0
    outer loop
      vertex 1.94534 86.19 0
      vertex 2.6474 84.7321 2
      vertex 2.6474 84.7321 0
    endloop
  endfacet
  facet normal 0.222518 0.974929 -0
    outer loop
      vertex 4.22493 84.3721 0
      vertex 2.6474 84.7321 2
      vertex 4.22493 84.3721 2
    endloop
  endfacet
  facet normal 0.222518 0.974929 0
    outer loop
      vertex 2.6474 84.7321 2
      vertex 4.22493 84.3721 0
      vertex 2.6474 84.7321 0
    endloop
  endfacet
  facet normal -1 0 0
    outer loop
      vertex 5.49 85.381 0
      vertex 5.49 86.999 2
      vertex 5.49 86.999 0
    endloop
  endfacet
  facet normal -1 -0 0
    outer loop
      vertex 5.49 86.999 2
      vertex 5.49 85.381 0
      vertex 5.49 85.381 2
    endloop
  endfacet
  facet normal 0.900969 -0.433884 0
    outer loop
      vertex 1.94534 86.19 2
      vertex 2.6474 87.6479 0
      vertex 2.6474 87.6479 2
    endloop
  endfacet
  facet normal 0.900969 -0.433884 0
    outer loop
      vertex 2.6474 87.6479 0
      vertex 1.94534 86.19 2
      vertex 1.94534 86.19 0
    endloop
  endfacet
  facet normal -0.623488 0.781833 0
    outer loop
      vertex 5.49 85.381 0
      vertex 4.22493 84.3721 2
      vertex 5.49 85.381 2
    endloop
  endfacet
  facet normal -0.623488 0.781833 0
    outer loop
      vertex 4.22493 84.3721 2
      vertex 5.49 85.381 0
      vertex 4.22493 84.3721 0
    endloop
  endfacet
  facet normal 0.222518 -0.974929 0
    outer loop
      vertex 2.6474 87.6479 0
      vertex 4.22493 88.0079 2
      vertex 2.6474 87.6479 2
    endloop
  endfacet
  facet normal 0.222518 -0.974929 0
    outer loop
      vertex 4.22493 88.0079 2
      vertex 2.6474 87.6479 0
      vertex 4.22493 88.0079 0
    endloop
  endfacet
  facet normal -0.623488 -0.781833 0
    outer loop
      vertex 4.22493 88.0079 0
      vertex 5.49 86.999 2
      vertex 4.22493 88.0079 2
    endloop
  endfacet
  facet normal -0.623488 -0.781833 -0
    outer loop
      vertex 5.49 86.999 2
      vertex 4.22493 88.0079 0
      vertex 5.49 86.999 0
    endloop
  endfacet
  facet normal 1 -0 0
    outer loop
      vertex 10 15 2
      vertex 10 45 0
      vertex 10 45 2
    endloop
  endfacet
  facet normal 1 0 0
    outer loop
      vertex 10 45 0
      vertex 10 15 2
      vertex 10 15 0
    endloop
  endfacet
  facet normal -1 0 0
    outer loop
      vertex 110 15 0
      vertex 110 45 2
      vertex 110 45 0
    endloop
  endfacet
  facet normal -1 -0 0
    outer loop
      vertex 110 45 2
      vertex 110 15 0
      vertex 110 15 2
    endloop
  endfacet
  facet normal 0 -1 0
    outer loop
      vertex 10 45 0
      vertex 110 45 2
      vertex 10 45 2
    endloop
  endfacet
  facet normal 0 -1 -0
    outer loop
      vertex 110 45 2
      vertex 10 45 0
      vertex 110 45 0
    endloop
  endfacet
  facet normal 0 1 -0
    outer loop
      vertex 110 15 0
      vertex 10 15 2
      vertex 110 15 2
    endloop
  endfacet
  facet normal 0 1 0
    outer loop
      vertex 10 15 2
      vertex 110 15 0
      vertex 10 15 0
    endloop
  endfacet
  facet normal 1 -0 0
    outer loop
      vertex 10 55 2
      vertex 10 61 1.25
      vertex 10 61 2
    endloop
  endfacet
  facet normal 1 0 0
    outer loop
      vertex 10 61 1.25
      vertex 10 55 2
      vertex 10 55 1.25
    endloop
  endfacet
  facet normal -1 0 0
    outer loop
      vertex 110 55 1.25
      vertex 110 61 2
      vertex 110 61 1.25
    endloop
  endfacet
  facet normal -1 -0 0
    outer loop
      vertex 110 61 2
      vertex 110 55 1.25
      vertex 110 55 2
    endloop
  endfacet
  facet normal -0 0 1
    outer loop
      vertex 10 61 1.25
      vertex 110 55 1.25
      vertex 110 61 1.25
    endloop
  endfacet
  facet normal 0 0 1
    outer loop
      vertex 110 55 1.25
      vertex 10 61 1.25
      vertex 10 55 1.25
    endloop
  endfacet
  facet normal 0 1 -0
    outer loop
      vertex 110 55 1.25
      vertex 10 55 2
      vertex 110 55 2
    endloop
  endfacet
  facet normal 0 1 0
    outer loop
      vertex 10 55 2
      vertex 110 55 1.25
      vertex 10 55 1.25
    endloop
  endfacet
  facet normal 0 -1 0
    outer loop
      vertex 10 61 1.25
      vertex 110 61 2
      vertex 10 61 2
    endloop
  endfacet
  facet normal 0 -1 -0
    outer loop
      vertex 110 61 2
      vertex 10 61 1.25
      vertex 110 61 1.25
    endloop
  endfacet
  facet normal 1 -0 0
    outer loop
      vertex 98 63.9052 3.62
      vertex 98 64 2.02
      vertex 98 64 3.62
    endloop
  endfacet
  facet normal 1 0 0
    outer loop
      vertex 98 64 2.02
      vertex 98 63.9052 3.62
      vertex 98 63.9052 2.02
    endloop
  endfacet
  facet normal 0 1 -0
    outer loop
      vertex 114 48.05 2.02
      vertex 113.994 48.05 3.62
      vertex 114 48.05 3.62
    endloop
  endfacet
  facet normal 0 1 0
    outer loop
      vertex 113.994 48.05 3.62
      vertex 114 48.05 2.02
      vertex 113.994 48.05 2.02
    endloop
  endfacet
  facet normal 0.809018 0.587784 0
    outer loop
      vertex 112.021 55.7081 3.62
      vertex 111 57.1132 2.02
      vertex 111 57.1132 3.62
    endloop
  endfacet
  facet normal 0.809018 0.587784 0
    outer loop
      vertex 111 57.1132 2.02
      vertex 112.021 55.7081 3.62
      vertex 112.021 55.7081 2.02
    endloop
  endfacet
  facet normal 0.992115 0.125333 0
    outer loop
      vertex 113.994 48.05 3.62
      vertex 113.497 51.979 2.02
      vertex 113.497 51.979 3.62
    endloop
  endfacet
  facet normal 0.992115 0.125333 0
    outer loop
      vertex 113.497 51.979 2.02
      vertex 113.994 48.05 3.62
      vertex 113.994 48.05 2.02
    endloop
  endfacet
  facet normal 0.637426 0.770512 -0
    outer loop
      vertex 107.177 61.01 2.02
      vertex 106.573 61.5092 3.62
      vertex 107.177 61.01 3.62
    endloop
  endfacet
  facet normal 0.637426 0.770512 0
    outer loop
      vertex 106.573 61.5092 3.62
      vertex 107.177 61.01 2.02
      vertex 106.573 61.5092 2.02
    endloop
  endfacet
  facet normal -0.0627893 0.998027 0
    outer loop
      vertex 99.0046 63.9684 2.02
      vertex 98 63.9052 3.62
      vertex 99.0046 63.9684 3.62
    endloop
  endfacet
  facet normal -0.0627893 0.998027 0
    outer loop
      vertex 98 63.9052 3.62
      vertex 99.0046 63.9684 2.02
      vertex 98 63.9052 2.02
    endloop
  endfacet
  facet normal 0.42578 0.904827 -0
    outer loop
      vertex 106.573 61.5092 2.02
      vertex 102.944 63.2169 3.62
      vertex 106.573 61.5092 3.62
    endloop
  endfacet
  facet normal 0.42578 0.904827 0
    outer loop
      vertex 102.944 63.2169 3.62
      vertex 106.573 61.5092 2.02
      vertex 102.944 63.2169 2.02
    endloop
  endfacet
  facet normal 0.929776 0.368125 0
    outer loop
      vertex 113.497 51.979 3.62
      vertex 112.021 55.7081 2.02
      vertex 112.021 55.7081 3.62
    endloop
  endfacet
  facet normal 0.929776 0.368125 0
    outer loop
      vertex 112.021 55.7081 2.02
      vertex 113.497 51.979 3.62
      vertex 113.497 51.979 2.02
    endloop
  endfacet
  facet normal 0.187381 0.982287 -0
    outer loop
      vertex 102.944 63.2169 2.02
      vertex 99.0046 63.9684 3.62
      vertex 102.944 63.2169 3.62
    endloop
  endfacet
  facet normal 0.187381 0.982287 0
    outer loop
      vertex 99.0046 63.9684 3.62
      vertex 102.944 63.2169 2.02
      vertex 99.0046 63.9684 2.02
    endloop
  endfacet
  facet normal 0 1 -0
    outer loop
      vertex 6.09478 48 2.02
      vertex 6 48 3.62
      vertex 6.09478 48 3.62
    endloop
  endfacet
  facet normal 0 1 0
    outer loop
      vertex 6 48 3.62
      vertex 6.09478 48 2.02
      vertex 6 48 2.02
    endloop
  endfacet
  facet normal -1 0 0
    outer loop
      vertex 21.95 63.9937 2.02
      vertex 21.95 64 3.62
      vertex 21.95 64 2.02
    endloop
  endfacet
  facet normal -1 -0 0
    outer loop
      vertex 21.95 64 3.62
      vertex 21.95 63.9937 2.02
      vertex 21.95 63.9937 3.62
    endloop
  endfacet
  facet normal -0.587785 0.809017 0
    outer loop
      vertex 14.2919 62.0209 2.02
      vertex 12.9005 61.01 3.62
      vertex 14.2919 62.0209 3.62
    endloop
  endfacet
  facet normal -0.587785 0.809017 0
    outer loop
      vertex 12.9005 61.01 3.62
      vertex 14.2919 62.0209 2.02
      vertex 12.9005 61.01 2.02
    endloop
  endfacet
  facet normal -0.125333 0.992115 0
    outer loop
      vertex 21.95 63.9937 2.02
      vertex 18.021 63.4973 3.62
      vertex 21.95 63.9937 3.62
    endloop
  endfacet
  facet normal -0.125333 0.992115 0
    outer loop
      vertex 18.021 63.4973 3.62
      vertex 21.95 63.9937 2.02
      vertex 18.021 63.4973 2.02
    endloop
  endfacet
  facet normal -0.770514 0.637423 0
    outer loop
      vertex 8.49075 56.5732 2.02
      vertex 9 57.1888 3.62
      vertex 9 57.1888 2.02
    endloop
  endfacet
  facet normal -0.770514 0.637423 0
    outer loop
      vertex 9 57.1888 3.62
      vertex 8.49075 56.5732 2.02
      vertex 8.49075 56.5732 3.62
    endloop
  endfacet
  facet normal -0.998027 -0.0627907 0
    outer loop
      vertex 6.09478 48 2.02
      vertex 6.03157 49.0046 3.62
      vertex 6.03157 49.0046 2.02
    endloop
  endfacet
  facet normal -0.998027 -0.0627907 0
    outer loop
      vertex 6.03157 49.0046 3.62
      vertex 6.09478 48 2.02
      vertex 6.09478 48 3.62
    endloop
  endfacet
  facet normal -0.904827 0.425779 0
    outer loop
      vertex 6.7831 52.9443 2.02
      vertex 8.49075 56.5732 3.62
      vertex 8.49075 56.5732 2.02
    endloop
  endfacet
  facet normal -0.904827 0.425779 0
    outer loop
      vertex 8.49075 56.5732 3.62
      vertex 6.7831 52.9443 2.02
      vertex 6.7831 52.9443 3.62
    endloop
  endfacet
  facet normal -0.368125 0.929776 0
    outer loop
      vertex 18.021 63.4973 2.02
      vertex 14.2919 62.0209 3.62
      vertex 18.021 63.4973 3.62
    endloop
  endfacet
  facet normal -0.368125 0.929776 0
    outer loop
      vertex 14.2919 62.0209 3.62
      vertex 18.021 63.4973 2.02
      vertex 14.2919 62.0209 2.02
    endloop
  endfacet
  facet normal -0.982287 0.187381 0
    outer loop
      vertex 6.03157 49.0046 2.02
      vertex 6.7831 52.9443 3.62
      vertex 6.7831 52.9443 2.02
    endloop
  endfacet
  facet normal -0.982287 0.187381 0
    outer loop
      vertex 6.7831 52.9443 3.62
      vertex 6.03157 49.0046 2.02
      vertex 6.03157 49.0046 3.62
    endloop
  endfacet
  facet normal -1 0 0
    outer loop
      vertex 22 6 2.02
      vertex 22 6.09478 3.62
      vertex 22 6.09478 2.02
    endloop
  endfacet
  facet normal -1 -0 0
    outer loop
      vertex 22 6.09478 3.62
      vertex 22 6 2.02
      vertex 22 6 3.62
    endloop
  endfacet
  facet normal 0 -1 0
    outer loop
      vertex 6 21.95 2.02
      vertex 6.00632 21.95 3.62
      vertex 6 21.95 3.62
    endloop
  endfacet
  facet normal 0 -1 -0
    outer loop
      vertex 6.00632 21.95 3.62
      vertex 6 21.95 2.02
      vertex 6.00632 21.95 2.02
    endloop
  endfacet
  facet normal -0.809017 -0.587785 0
    outer loop
      vertex 9 12.8868 2.02
      vertex 7.97909 14.2919 3.62
      vertex 7.97909 14.2919 2.02
    endloop
  endfacet
  facet normal -0.809017 -0.587785 0
    outer loop
      vertex 7.97909 14.2919 3.62
      vertex 9 12.8868 2.02
      vertex 9 12.8868 3.62
    endloop
  endfacet
  facet normal -0.992115 -0.125333 0
    outer loop
      vertex 6.50267 18.021 2.02
      vertex 6.00632 21.95 3.62
      vertex 6.00632 21.95 2.02
    endloop
  endfacet
  facet normal -0.992115 -0.125333 0
    outer loop
      vertex 6.00632 21.95 3.62
      vertex 6.50267 18.021 2.02
      vertex 6.50267 18.021 3.62
    endloop
  endfacet
  facet normal -0.637424 -0.770514 0
    outer loop
      vertex 12.8233 8.99 2.02
      vertex 13.4268 8.49075 3.62
      vertex 12.8233 8.99 3.62
    endloop
  endfacet
  facet normal -0.637424 -0.770514 -0
    outer loop
      vertex 13.4268 8.49075 3.62
      vertex 12.8233 8.99 2.02
      vertex 13.4268 8.49075 2.02
    endloop
  endfacet
  facet normal 0.0627906 -0.998027 0
    outer loop
      vertex 20.9954 6.03157 2.02
      vertex 22 6.09478 3.62
      vertex 20.9954 6.03157 3.62
    endloop
  endfacet
  facet normal 0.0627906 -0.998027 0
    outer loop
      vertex 22 6.09478 3.62
      vertex 20.9954 6.03157 2.02
      vertex 22 6.09478 2.02
    endloop
  endfacet
  facet normal -0.425779 -0.904827 0
    outer loop
      vertex 13.4268 8.49075 2.02
      vertex 17.0557 6.7831 3.62
      vertex 13.4268 8.49075 3.62
    endloop
  endfacet
  facet normal -0.425779 -0.904827 -0
    outer loop
      vertex 17.0557 6.7831 3.62
      vertex 13.4268 8.49075 2.02
      vertex 17.0557 6.7831 2.02
    endloop
  endfacet
  facet normal -0.929777 -0.368124 0
    outer loop
      vertex 7.97909 14.2919 2.02
      vertex 6.50267 18.021 3.62
      vertex 6.50267 18.021 2.02
    endloop
  endfacet
  facet normal -0.929777 -0.368124 0
    outer loop
      vertex 6.50267 18.021 3.62
      vertex 7.97909 14.2919 2.02
      vertex 7.97909 14.2919 3.62
    endloop
  endfacet
  facet normal -0.187381 -0.982287 0
    outer loop
      vertex 17.0557 6.7831 2.02
      vertex 20.9954 6.03157 3.62
      vertex 17.0557 6.7831 3.62
    endloop
  endfacet
  facet normal -0.187381 -0.982287 -0
    outer loop
      vertex 20.9954 6.03157 3.62
      vertex 17.0557 6.7831 2.02
      vertex 20.9954 6.03157 2.02
    endloop
  endfacet
  facet normal 0 -1 0
    outer loop
      vertex 113.905 22 2.02
      vertex 114 22 3.62
      vertex 113.905 22 3.62
    endloop
  endfacet
  facet normal 0 -1 -0
    outer loop
      vertex 114 22 3.62
      vertex 113.905 22 2.02
      vertex 114 22 2.02
    endloop
  endfacet
  facet normal 1 -0 0
    outer loop
      vertex 98.05 6 3.62
      vertex 98.05 6.00632 2.02
      vertex 98.05 6.00632 3.62
    endloop
  endfacet
  facet normal 1 0 0
    outer loop
      vertex 98.05 6.00632 2.02
      vertex 98.05 6 3.62
      vertex 98.05 6 2.02
    endloop
  endfacet
  facet normal 0.587787 -0.809016 0
    outer loop
      vertex 105.708 7.97909 2.02
      vertex 107.099 8.99 3.62
      vertex 105.708 7.97909 3.62
    endloop
  endfacet
  facet normal 0.587787 -0.809016 0
    outer loop
      vertex 107.099 8.99 3.62
      vertex 105.708 7.97909 2.02
      vertex 107.099 8.99 2.02
    endloop
  endfacet
  facet normal 0.125333 -0.992115 0
    outer loop
      vertex 98.05 6.00632 2.02
      vertex 101.979 6.50267 3.62
      vertex 98.05 6.00632 3.62
    endloop
  endfacet
  facet normal 0.125333 -0.992115 0
    outer loop
      vertex 101.979 6.50267 3.62
      vertex 98.05 6.00632 2.02
      vertex 101.979 6.50267 2.02
    endloop
  endfacet
  facet normal 0.770513 -0.637424 0
    outer loop
      vertex 111 12.8112 3.62
      vertex 111.509 13.4268 2.02
      vertex 111.509 13.4268 3.62
    endloop
  endfacet
  facet normal 0.770513 -0.637424 0
    outer loop
      vertex 111.509 13.4268 2.02
      vertex 111 12.8112 3.62
      vertex 111 12.8112 2.02
    endloop
  endfacet
  facet normal 0.998027 0.0627929 0
    outer loop
      vertex 113.968 20.9954 3.62
      vertex 113.905 22 2.02
      vertex 113.905 22 3.62
    endloop
  endfacet
  facet normal 0.998027 0.0627929 0
    outer loop
      vertex 113.905 22 2.02
      vertex 113.968 20.9954 3.62
      vertex 113.968 20.9954 2.02
    endloop
  endfacet
  facet normal 0.904827 -0.425779 0
    outer loop
      vertex 111.509 13.4268 3.62
      vertex 113.217 17.0557 2.02
      vertex 113.217 17.0557 3.62
    endloop
  endfacet
  facet normal 0.904827 -0.425779 0
    outer loop
      vertex 113.217 17.0557 2.02
      vertex 111.509 13.4268 3.62
      vertex 111.509 13.4268 2.02
    endloop
  endfacet
  facet normal 0.368124 -0.929777 0
    outer loop
      vertex 101.979 6.50267 2.02
      vertex 105.708 7.97909 3.62
      vertex 101.979 6.50267 3.62
    endloop
  endfacet
  facet normal 0.368124 -0.929777 0
    outer loop
      vertex 105.708 7.97909 3.62
      vertex 101.979 6.50267 2.02
      vertex 105.708 7.97909 2.02
    endloop
  endfacet
  facet normal 0.982287 -0.187382 0
    outer loop
      vertex 113.217 17.0557 3.62
      vertex 113.968 20.9954 2.02
      vertex 113.968 20.9954 3.62
    endloop
  endfacet
  facet normal 0.982287 -0.187382 0
    outer loop
      vertex 113.968 20.9954 2.02
      vertex 113.217 17.0557 3.62
      vertex 113.217 17.0557 2.02
    endloop
  endfacet
  facet normal -1 0 0
    outer loop
      vertex 6 21.95 2.02
      vertex 6 48 3.62
      vertex 6 48 2.02
    endloop
  endfacet
  facet normal -1 -0 0
    outer loop
      vertex 6 48 3.62
      vertex 6 21.95 2.02
      vertex 6 21.95 3.62
    endloop
  endfacet
  facet normal 0 0 1
    outer loop
      vertex 98 64 3.62
      vertex 21.95 64 3.62
      vertex 98 63.9052 3.62
    endloop
  endfacet
  facet normal 0 0 1
    outer loop
      vertex 102.944 63.2169 3.62
      vertex 107.177 61.01 3.62
      vertex 106.573 61.5092 3.62
    endloop
  endfacet
  facet normal -0 0 1
    outer loop
      vertex 98 63.9052 3.62
      vertex 102.944 63.2169 3.62
      vertex 99.0046 63.9684 3.62
    endloop
  endfacet
  facet normal 0 0 1
    outer loop
      vertex 102.944 63.2169 3.62
      vertex 98 63.9052 3.62
      vertex 107.177 61.01 3.62
    endloop
  endfacet
  facet normal -0 0 1
    outer loop
      vertex 21.95 63.9937 3.62
      vertex 98 63.9052 3.62
      vertex 21.95 64 3.62
    endloop
  endfacet
  facet normal 0 0 1
    outer loop
      vertex 12.9005 61.01 3.62
      vertex 98 63.9052 3.62
      vertex 21.95 63.9937 3.62
    endloop
  endfacet
  facet normal 0 0 1
    outer loop
      vertex 12.9005 61.01 3.62
      vertex 21.95 63.9937 3.62
      vertex 18.021 63.4973 3.62
    endloop
  endfacet
  facet normal 0 0 1
    outer loop
      vertex 12.9005 61.01 3.62
      vertex 18.021 63.4973 3.62
      vertex 14.2919 62.0209 3.62
    endloop
  endfacet
  facet normal 0 0 1
    outer loop
      vertex 98 63.9052 3.62
      vertex 12.9005 61.01 3.62
      vertex 107.177 61.01 3.62
    endloop
  endfacet
  facet normal -0 0 1
    outer loop
      vertex 113.994 48.05 3.62
      vertex 114 22 3.62
      vertex 114 48.05 3.62
    endloop
  endfacet
  facet normal 0 0 1
    outer loop
      vertex 113.994 48.05 3.62
      vertex 113.905 22 3.62
      vertex 114 22 3.62
    endloop
  endfacet
  facet normal 0 0 1
    outer loop
      vertex 111 57.1132 3.62
      vertex 113.994 48.05 3.62
      vertex 113.497 51.979 3.62
    endloop
  endfacet
  facet normal 0 0 1
    outer loop
      vertex 113.905 22 3.62
      vertex 113.217 17.0557 3.62
      vertex 113.968 20.9954 3.62
    endloop
  endfacet
  facet normal 0 0 1
    outer loop
      vertex 113.994 48.05 3.62
      vertex 111 57.1132 3.62
      vertex 113.905 22 3.62
    endloop
  endfacet
  facet normal 0 0 1
    outer loop
      vertex 111 57.1132 3.62
      vertex 113.497 51.979 3.62
      vertex 112.021 55.7081 3.62
    endloop
  endfacet
  facet normal 0 0 1
    outer loop
      vertex 113.905 22 3.62
      vertex 111 57.1132 3.62
      vertex 111 12.8112 3.62
    endloop
  endfacet
  facet normal 0 0 1
    outer loop
      vertex 113.905 22 3.62
      vertex 111 12.8112 3.62
      vertex 113.217 17.0557 3.62
    endloop
  endfacet
  facet normal 0 0 1
    outer loop
      vertex 113.217 17.0557 3.62
      vertex 111 12.8112 3.62
      vertex 111.509 13.4268 3.62
    endloop
  endfacet
  facet normal 0 0 1
    outer loop
      vertex 6.7831 52.9443 3.62
      vertex 9 57.1888 3.62
      vertex 8.49075 56.5732 3.62
    endloop
  endfacet
  facet normal 0 0 1
    outer loop
      vertex 9 57.1888 3.62
      vertex 6.09478 48 3.62
      vertex 9 12.8868 3.62
    endloop
  endfacet
  facet normal 0 0 1
    outer loop
      vertex 9 57.1888 3.62
      vertex 6.7831 52.9443 3.62
      vertex 6.09478 48 3.62
    endloop
  endfacet
  facet normal -0 0 1
    outer loop
      vertex 6.00632 21.95 3.62
      vertex 9 12.8868 3.62
      vertex 6.09478 48 3.62
    endloop
  endfacet
  facet normal -0 -0 1
    outer loop
      vertex 6.50267 18.021 3.62
      vertex 9 12.8868 3.62
      vertex 6.00632 21.95 3.62
    endloop
  endfacet
  facet normal 0 -0 1
    outer loop
      vertex 6.09478 48 3.62
      vertex 6.7831 52.9443 3.62
      vertex 6.03157 49.0046 3.62
    endloop
  endfacet
  facet normal 0 0 1
    outer loop
      vertex 9 12.8868 3.62
      vertex 6.50267 18.021 3.62
      vertex 7.97909 14.2919 3.62
    endloop
  endfacet
  facet normal -0 0 1
    outer loop
      vertex 6 48 3.62
      vertex 6.00632 21.95 3.62
      vertex 6.09478 48 3.62
    endloop
  endfacet
  facet normal 0 0 1
    outer loop
      vertex 6.00632 21.95 3.62
      vertex 6 48 3.62
      vertex 6 21.95 3.62
    endloop
  endfacet
  facet normal 0 0 1
    outer loop
      vertex 107.099 8.99 3.62
      vertex 101.979 6.50267 3.62
      vertex 105.708 7.97909 3.62
    endloop
  endfacet
  facet normal 0 0 1
    outer loop
      vertex 107.099 8.99 3.62
      vertex 98.05 6.00632 3.62
      vertex 101.979 6.50267 3.62
    endloop
  endfacet
  facet normal 0 0 1
    outer loop
      vertex 98.05 6.00632 3.62
      vertex 22 6.09478 3.62
      vertex 98.05 6 3.62
    endloop
  endfacet
  facet normal 0 0 1
    outer loop
      vertex 107.099 8.99 3.62
      vertex 22 6.09478 3.62
      vertex 98.05 6.00632 3.62
    endloop
  endfacet
  facet normal 0 0 1
    outer loop
      vertex 22 6.09478 3.62
      vertex 17.0557 6.7831 3.62
      vertex 20.9954 6.03157 3.62
    endloop
  endfacet
  facet normal -0 0 1
    outer loop
      vertex 12.8233 8.99 3.62
      vertex 22 6.09478 3.62
      vertex 107.099 8.99 3.62
    endloop
  endfacet
  facet normal 0 0 1
    outer loop
      vertex 22 6.09478 3.62
      vertex 12.8233 8.99 3.62
      vertex 17.0557 6.7831 3.62
    endloop
  endfacet
  facet normal 0 0 1
    outer loop
      vertex 17.0557 6.7831 3.62
      vertex 12.8233 8.99 3.62
      vertex 13.4268 8.49075 3.62
    endloop
  endfacet
  facet normal 0 0 1
    outer loop
      vertex 98.05 6 3.62
      vertex 22 6.09478 3.62
      vertex 22 6 3.62
    endloop
  endfacet
  facet normal 1 -0 0
    outer loop
      vertex 114 22 3.62
      vertex 114 48.05 2.02
      vertex 114 48.05 3.62
    endloop
  endfacet
  facet normal 1 0 0
    outer loop
      vertex 114 48.05 2.02
      vertex 114 22 3.62
      vertex 114 22 2.02
    endloop
  endfacet
  facet normal 0 0 -1
    outer loop
      vertex 107.177 61.01 2.02
      vertex 102.944 63.2169 2.02
      vertex 106.573 61.5092 2.02
    endloop
  endfacet
  facet normal 0 0 -1
    outer loop
      vertex 98 63.9052 2.02
      vertex 102.944 63.2169 2.02
      vertex 107.177 61.01 2.02
    endloop
  endfacet
  facet normal 0 0 -1
    outer loop
      vertex 102.944 63.2169 2.02
      vertex 98 63.9052 2.02
      vertex 99.0046 63.9684 2.02
    endloop
  endfacet
  facet normal 0 0 -1
    outer loop
      vertex 98 63.9052 2.02
      vertex 21.95 63.9937 2.02
      vertex 98 64 2.02
    endloop
  endfacet
  facet normal 0 0 -1
    outer loop
      vertex 12.9005 61.01 2.02
      vertex 98 63.9052 2.02
      vertex 107.177 61.01 2.02
    endloop
  endfacet
  facet normal -0 0 -1
    outer loop
      vertex 98 63.9052 2.02
      vertex 12.9005 61.01 2.02
      vertex 21.95 63.9937 2.02
    endloop
  endfacet
  facet normal 0 0 -1
    outer loop
      vertex 21.95 63.9937 2.02
      vertex 12.9005 61.01 2.02
      vertex 18.021 63.4973 2.02
    endloop
  endfacet
  facet normal 0 0 -1
    outer loop
      vertex 18.021 63.4973 2.02
      vertex 12.9005 61.01 2.02
      vertex 14.2919 62.0209 2.02
    endloop
  endfacet
  facet normal -0 0 -1
    outer loop
      vertex 98 64 2.02
      vertex 21.95 63.9937 2.02
      vertex 21.95 64 2.02
    endloop
  endfacet
  facet normal 0 0 -1
    outer loop
      vertex 113.217 17.0557 2.02
      vertex 113.905 22 2.02
      vertex 113.968 20.9954 2.02
    endloop
  endfacet
  facet normal 0 0 -1
    outer loop
      vertex 111 12.8112 2.02
      vertex 113.905 22 2.02
      vertex 113.217 17.0557 2.02
    endloop
  endfacet
  facet normal 0 0 -1
    outer loop
      vertex 111 57.1132 2.02
      vertex 113.905 22 2.02
      vertex 111 12.8112 2.02
    endloop
  endfacet
  facet normal 0 0 -1
    outer loop
      vertex 111 12.8112 2.02
      vertex 113.217 17.0557 2.02
      vertex 111.509 13.4268 2.02
    endloop
  endfacet
  facet normal 0 0 -1
    outer loop
      vertex 113.905 22 2.02
      vertex 111 57.1132 2.02
      vertex 113.497 51.979 2.02
    endloop
  endfacet
  facet normal 0 0 -1
    outer loop
      vertex 113.497 51.979 2.02
      vertex 111 57.1132 2.02
      vertex 112.021 55.7081 2.02
    endloop
  endfacet
  facet normal 0 0 -1
    outer loop
      vertex 114 22 2.02
      vertex 113.994 48.05 2.02
      vertex 114 48.05 2.02
    endloop
  endfacet
  facet normal 0 0 -1
    outer loop
      vertex 113.905 22 2.02
      vertex 113.994 48.05 2.02
      vertex 114 22 2.02
    endloop
  endfacet
  facet normal -0 0 -1
    outer loop
      vertex 113.994 48.05 2.02
      vertex 113.905 22 2.02
      vertex 113.497 51.979 2.02
    endloop
  endfacet
  facet normal 0 0 -1
    outer loop
      vertex 9 12.8868 2.02
      vertex 6.00632 21.95 2.02
      vertex 6.09478 48 2.02
    endloop
  endfacet
  facet normal 0 0 -1
    outer loop
      vertex 6 21.95 2.02
      vertex 6.09478 48 2.02
      vertex 6.00632 21.95 2.02
    endloop
  endfacet
  facet normal -0 0 -1
    outer loop
      vertex 6.09478 48 2.02
      vertex 6 21.95 2.02
      vertex 6 48 2.02
    endloop
  endfacet
  facet normal 0 0 -1
    outer loop
      vertex 6.09478 48 2.02
      vertex 9 57.1888 2.02
      vertex 9 12.8868 2.02
    endloop
  endfacet
  facet normal 0 0 -1
    outer loop
      vertex 6.50267 18.021 2.02
      vertex 9 12.8868 2.02
      vertex 7.97909 14.2919 2.02
    endloop
  endfacet
  facet normal 0 -0 -1
    outer loop
      vertex 6.7831 52.9443 2.02
      vertex 9 57.1888 2.02
      vertex 6.09478 48 2.02
    endloop
  endfacet
  facet normal 0 0 -1
    outer loop
      vertex 6.00632 21.95 2.02
      vertex 9 12.8868 2.02
      vertex 6.50267 18.021 2.02
    endloop
  endfacet
  facet normal 0 0 -1
    outer loop
      vertex 9 57.1888 2.02
      vertex 6.7831 52.9443 2.02
      vertex 8.49075 56.5732 2.02
    endloop
  endfacet
  facet normal 0 0 -1
    outer loop
      vertex 6.7831 52.9443 2.02
      vertex 6.09478 48 2.02
      vertex 6.03157 49.0046 2.02
    endloop
  endfacet
  facet normal 0 0 -1
    outer loop
      vertex 98.05 6 2.02
      vertex 22 6 2.02
      vertex 98.05 6.00632 2.02
    endloop
  endfacet
  facet normal 0 0 -1
    outer loop
      vertex 101.979 6.50267 2.02
      vertex 107.099 8.99 2.02
      vertex 105.708 7.97909 2.02
    endloop
  endfacet
  facet normal 0 0 -1
    outer loop
      vertex 98.05 6.00632 2.02
      vertex 107.099 8.99 2.02
      vertex 101.979 6.50267 2.02
    endloop
  endfacet
  facet normal 0 0 -1
    outer loop
      vertex 22 6.09478 2.02
      vertex 98.05 6.00632 2.02
      vertex 22 6 2.02
    endloop
  endfacet
  facet normal 0 0 -1
    outer loop
      vertex 98.05 6.00632 2.02
      vertex 22 6.09478 2.02
      vertex 107.099 8.99 2.02
    endloop
  endfacet
  facet normal 0 0 -1
    outer loop
      vertex 17.0557 6.7831 2.02
      vertex 22 6.09478 2.02
      vertex 20.9954 6.03157 2.02
    endloop
  endfacet
  facet normal 0 0 -1
    outer loop
      vertex 12.8233 8.99 2.02
      vertex 22 6.09478 2.02
      vertex 17.0557 6.7831 2.02
    endloop
  endfacet
  facet normal 0 0 -1
    outer loop
      vertex 12.8233 8.99 2.02
      vertex 17.0557 6.7831 2.02
      vertex 13.4268 8.49075 2.02
    endloop
  endfacet
  facet normal 0 0 -1
    outer loop
      vertex 22 6.09478 2.02
      vertex 12.8233 8.99 2.02
      vertex 107.099 8.99 2.02
    endloop
  endfacet
  facet normal 0 -1 0
    outer loop
      vertex 22 6 2.02
      vertex 98.05 6 3.62
      vertex 22 6 3.62
    endloop
  endfacet
  facet normal 0 -1 -0
    outer loop
      vertex 98.05 6 3.62
      vertex 22 6 2.02
      vertex 98.05 6 2.02
    endloop
  endfacet
  facet normal 0 1 -0
    outer loop
      vertex 98 64 2.02
      vertex 21.95 64 3.62
      vertex 98 64 3.62
    endloop
  endfacet
  facet normal 0 1 0
    outer loop
      vertex 21.95 64 3.62
      vertex 98 64 2.02
      vertex 21.95 64 2.02
    endloop
  endfacet
  facet normal 1 -0 0
    outer loop
      vertex 9 12.8868 3.62
      vertex 9 57.1888 2.02
      vertex 9 57.1888 3.62
    endloop
  endfacet
  facet normal 1 0 0
    outer loop
      vertex 9 57.1888 2.02
      vertex 9 12.8868 3.62
      vertex 9 12.8868 2.02
    endloop
  endfacet
  facet normal -1 0 0
    outer loop
      vertex 111 12.8112 2.02
      vertex 111 57.1132 3.62
      vertex 111 57.1132 2.02
    endloop
  endfacet
  facet normal -1 -0 0
    outer loop
      vertex 111 57.1132 3.62
      vertex 111 12.8112 2.02
      vertex 111 12.8112 3.62
    endloop
  endfacet
  facet normal 0 -1 0
    outer loop
      vertex 12.9005 61.01 2.02
      vertex 107.177 61.01 3.62
      vertex 12.9005 61.01 3.62
    endloop
  endfacet
  facet normal 0 -1 -0
    outer loop
      vertex 107.177 61.01 3.62
      vertex 12.9005 61.01 2.02
      vertex 107.177 61.01 2.02
    endloop
  endfacet
  facet normal 0 1 -0
    outer loop
      vertex 107.099 8.99 2.02
      vertex 12.8233 8.99 3.62
      vertex 107.099 8.99 3.62
    endloop
  endfacet
  facet normal 0 1 0
    outer loop
      vertex 12.8233 8.99 3.62
      vertex 107.099 8.99 2.02
      vertex 12.8233 8.99 2.02
    endloop
  endfacet
endsolid OpenSCAD_Model
